<svg width="24" height="24" viewBox="0 0 24 24" fill="none" xmlns="http://www.w3.org/2000/svg">
<path d="M3.69629 16.4773H15.0645C15.2958 16.4773 15.4904 16.5569 15.6484 16.7166C15.8064 16.876 15.8857 17.0732 15.8857 17.3093C15.8857 17.5456 15.8071 17.7397 15.6514 17.8933C15.4954 18.047 15.3001 18.1248 15.0645 18.1248H3.69629C3.46098 18.1247 3.26632 18.0447 3.11035 17.8855C2.95419 17.7259 2.87598 17.5283 2.87598 17.2917C2.87603 17.0554 2.95365 16.8613 3.10938 16.7078C3.26534 16.5542 3.46053 16.4773 3.69629 16.4773ZM19.9492 7.5105C20.1783 7.5105 20.3774 7.59415 20.5469 7.76343C20.7122 7.92872 20.7949 8.12396 20.7949 8.34937C20.7949 8.57484 20.7141 8.76985 20.5527 8.9353L17.5547 11.9578L17.5371 11.9753L17.5547 11.9929L20.5781 15.0398C20.7395 15.2053 20.8183 15.3972 20.8164 15.616C20.8144 15.8348 20.7318 16.0267 20.5664 16.1921C20.401 16.3576 20.2049 16.4402 19.9775 16.4402C19.7503 16.4402 19.5549 16.3555 19.3896 16.1863H19.3887L15.75 12.5544C15.5847 12.3889 15.502 12.196 15.502 11.9753C15.502 11.7546 15.5846 11.5618 15.75 11.3962L19.3584 7.76343C19.5235 7.59433 19.7201 7.51059 19.9492 7.5105ZM3.69629 11.1228H12.1006C12.3318 11.1228 12.5254 11.2043 12.6836 11.366C12.8418 11.5276 12.9209 11.7254 12.9209 11.9617C12.9209 12.1981 12.8432 12.3921 12.6875 12.5457C12.5315 12.6994 12.3364 12.7771 12.1006 12.7771H3.69629C3.46083 12.7771 3.26638 12.6964 3.11035 12.5369C2.95419 12.3773 2.87598 12.1804 2.87598 11.9441C2.87601 11.7078 2.95365 11.5127 3.10938 11.3572C3.26536 11.2015 3.46063 11.1228 3.69629 11.1228ZM3.69629 5.86987H15.0645C15.2957 5.86987 15.4904 5.95048 15.6484 6.11206C15.8063 6.27355 15.8857 6.47163 15.8857 6.70776C15.8857 6.94415 15.8071 7.13819 15.6514 7.29175C15.4954 7.4453 15.3001 7.52319 15.0645 7.52319H3.69629C3.46103 7.52318 3.26631 7.44307 3.11035 7.28394C2.95419 7.12438 2.87598 6.92671 2.87598 6.69019C2.87599 6.45398 2.95357 6.25887 3.10938 6.10327C3.26536 5.94761 3.46063 5.86988 3.69629 5.86987Z" fill="white" stroke="white" stroke-width="0.05"/>
</svg>
