<svg width="48" height="48" viewBox="0 0 48 48" fill="none" xmlns="http://www.w3.org/2000/svg">
<path d="M24.0744 42.1314C23.6171 42.1314 23.2408 41.9857 22.9454 41.6944C22.6501 41.4031 22.5024 41.0287 22.5024 40.5714V37.9074C20.8708 37.6327 19.4863 37.0561 18.3489 36.1774C17.2116 35.2991 16.3223 34.1892 15.6809 32.8479C15.4983 32.4492 15.5023 32.0319 15.6929 31.5959C15.8836 31.1602 16.1988 30.8511 16.6384 30.6684C17.0291 30.5017 17.4301 30.5057 17.8414 30.6804C18.2524 30.8551 18.5779 31.1456 18.8179 31.5519C19.4099 32.6536 20.1813 33.4757 21.1319 34.0184C22.0826 34.5611 23.1634 34.8324 24.3744 34.8324C25.9504 34.8324 27.2371 34.4464 28.2344 33.6744C29.2321 32.9024 29.7309 31.8442 29.7309 30.4999C29.7309 29.0732 29.2706 27.9619 28.3499 27.1659C27.4293 26.3696 25.7063 25.5627 23.1809 24.7454C20.7969 23.9947 19.0093 22.9721 17.8179 21.6774C16.6266 20.3831 16.0309 18.7739 16.0309 16.8499C16.0309 15.0406 16.6126 13.5052 17.7759 12.2439C18.9393 10.9826 20.5148 10.2487 22.5024 10.0424V7.42841C22.5024 6.97108 22.6501 6.59674 22.9454 6.30541C23.2408 6.01407 23.6171 5.86841 24.0744 5.86841C24.5318 5.86841 24.9059 6.01407 25.1969 6.30541C25.4883 6.59674 25.6339 6.97108 25.6339 7.42841V10.0424C26.8259 10.2251 27.9049 10.5997 28.8709 11.1664C29.8369 11.7331 30.6406 12.4742 31.2819 13.3899C31.5313 13.7552 31.5813 14.1476 31.4319 14.5669C31.2826 14.9859 30.9881 15.2867 30.5484 15.4694C30.1658 15.6441 29.7624 15.6627 29.3384 15.5254C28.9144 15.3881 28.5413 15.1241 28.2189 14.7334C27.7603 14.1654 27.1953 13.7437 26.5239 13.4684C25.8526 13.1931 25.0534 13.0554 24.1264 13.0554C22.6331 13.0554 21.4563 13.3874 20.5959 14.0514C19.7359 14.7157 19.3059 15.6239 19.3059 16.7759C19.3059 17.9949 19.7819 18.9881 20.7339 19.7554C21.6863 20.5227 23.5284 21.3271 26.2604 22.1684C28.5428 22.8844 30.2376 23.9087 31.3449 25.2414C32.4523 26.5737 33.0059 28.2599 33.0059 30.2999C33.0059 32.4239 32.3833 34.1376 31.1379 35.4409C29.8926 36.7439 28.0579 37.5827 25.6339 37.9574V40.5714C25.6339 41.0287 25.4864 41.4031 25.1914 41.6944C24.8961 41.9857 24.5238 42.1314 24.0744 42.1314Z" fill="#3E597C"/>
</svg>
