<svg width="48" height="48" viewBox="0 0 48 48" fill="none" xmlns="http://www.w3.org/2000/svg">
<path d="M26.2439 44.55C26.0063 44.55 25.7686 44.527 25.5309 44.481C25.2933 44.435 25.0556 44.3751 24.8179 44.3015L12.0644 39.585C11.2404 39.277 10.5893 38.7718 10.1109 38.0695C9.63226 37.3671 9.39292 36.603 9.39292 35.777C9.39292 35.6023 9.48026 35.1238 9.65492 34.3415L14.8004 19.8925H14.6504C14.0268 19.8925 13.5693 19.6178 13.2779 19.0685C12.9863 18.5191 13.0106 17.9843 13.3509 17.464L17.1149 11.7565C17.2813 11.5418 17.3394 11.3166 17.2894 11.081C17.2394 10.845 17.1311 10.6396 16.9644 10.465L16.2359 9.75345L6.31792 18.35C5.73526 18.8326 5.29825 19.409 5.00692 20.079C4.71559 20.7486 4.56992 21.4581 4.56992 22.2075V33.4C4.56992 33.876 4.41492 34.2696 4.10492 34.581C3.79459 34.8923 3.40576 35.048 2.93842 35.048C2.46509 35.048 2.07292 34.8908 1.76192 34.5765C1.45059 34.2625 1.29492 33.8718 1.29492 33.4045V22.2075C1.29492 20.9891 1.54859 19.826 2.05592 18.718C2.56326 17.6103 3.27009 16.6571 4.17642 15.8585L15.2089 6.30195C15.5489 6.00362 15.9468 5.87112 16.4024 5.90446C16.8584 5.93779 17.2398 6.10779 17.5464 6.41445L19.0559 7.92395L19.7299 6.08795C20.0379 5.26395 20.5413 4.60429 21.2399 4.10895C21.9389 3.61395 22.7183 3.36646 23.5779 3.36646C23.8429 3.36646 24.0898 3.38312 24.3184 3.41646C24.5471 3.44979 24.7988 3.51646 25.0734 3.61646L37.8089 8.33145C38.6329 8.63945 39.2843 9.15262 39.7629 9.87095C40.2416 10.5896 40.4809 11.3618 40.4809 12.1875C40.4809 12.3938 40.3936 12.8563 40.2189 13.575L39.1049 16.7025C40.1033 16.8775 40.9351 17.3576 41.6004 18.143C42.2658 18.928 42.5984 19.8525 42.5984 20.9165C42.5984 21.0895 42.5901 21.2625 42.5734 21.4355C42.5568 21.6085 42.5191 21.7775 42.4604 21.9425H42.5984C43.7284 21.9425 44.6974 22.3443 45.5054 23.148C46.3138 23.952 46.7179 24.9186 46.7179 26.048C46.7179 26.9153 46.5036 27.6766 46.0749 28.332C45.6463 28.9873 45.0946 29.4856 44.4199 29.827C44.4866 30.0523 44.5449 30.2706 44.5949 30.482C44.6449 30.693 44.6699 30.9295 44.6699 31.1915C44.6699 32.3391 44.2658 33.3106 43.4574 34.106C42.6488 34.9013 41.6793 35.299 40.5489 35.299H40.4004C40.4591 35.4736 40.4988 35.6466 40.5194 35.818C40.5401 35.9893 40.5504 36.1606 40.5504 36.332C40.5504 37.5136 40.1283 38.526 39.2839 39.369C38.4396 40.212 37.4328 40.6335 36.2634 40.6335H30.5459L30.1559 41.8285C29.8733 42.6775 29.3636 43.3433 28.6269 43.826C27.8903 44.3086 27.0959 44.55 26.2439 44.55ZM28.0289 38.025L36.1319 15.325L21.8449 10.0295L13.7419 32.7415L28.0289 38.025ZM31.6919 37.3585H36.2459C36.5269 37.3585 36.7688 37.2575 36.9714 37.0555C37.1741 36.8531 37.2754 36.6118 37.2754 36.3315C37.2754 36.0511 37.1734 35.809 36.9694 35.605C36.7654 35.401 36.5261 35.299 36.2514 35.299H32.4654L31.6919 37.3585ZM33.5394 32.227H40.3534C40.6344 32.227 40.8763 32.124 41.0789 31.918C41.2816 31.7116 41.3829 31.4683 41.3829 31.188C41.3829 30.9076 41.2816 30.6655 41.0789 30.4615C40.8763 30.2575 40.6344 30.1555 40.3534 30.1555H34.3089L33.5394 32.227ZM35.3874 27.0835H42.4129C42.6939 27.0835 42.9358 26.9815 43.1384 26.7775C43.3414 26.5735 43.4429 26.3313 43.4429 26.051C43.4429 25.7706 43.3409 25.5295 43.1369 25.3275C42.9329 25.1251 42.6936 25.024 42.4189 25.024H36.1114L35.3874 27.0835ZM37.2469 21.94H38.3114C38.5861 21.94 38.8254 21.8398 39.0294 21.6395C39.2334 21.4388 39.3354 21.1995 39.3354 20.9215C39.3354 20.6435 39.2334 20.4025 39.0294 20.1985C38.8254 19.9945 38.5861 19.8925 38.3114 19.8925H37.9589L37.2469 21.94Z" fill="#3E597C"/>
</svg>
