<svg width="48" height="48" viewBox="0 0 48 48" fill="none" xmlns="http://www.w3.org/2000/svg">
<path d="M42.3469 22.122V39C42.3469 39.92 42.0081 40.7176 41.3304 41.393C40.6524 42.0686 39.8519 42.4065 38.9289 42.4065H9.02191C8.10224 42.4065 7.30457 42.0686 6.62891 41.393C5.95324 40.7176 5.61541 39.92 5.61541 39V22.1455C4.66641 21.2978 4.05374 20.2745 3.77741 19.0755C3.50141 17.8765 3.54674 16.6901 3.91341 15.5165L6.06341 8.76646C6.35407 7.80246 6.85491 7.04863 7.56591 6.50496C8.27691 5.96096 9.10507 5.68896 10.0504 5.68896H37.7004C38.7027 5.68896 39.5804 5.9693 40.3334 6.52996C41.0867 7.0903 41.6047 7.8358 41.8874 8.76646L44.0874 15.5165C44.4541 16.6831 44.4871 17.8616 44.1864 19.052C43.8857 20.2426 43.2726 21.266 42.3469 22.122ZM28.5059 20.3925C29.4329 20.3925 30.2207 20.089 30.8694 19.482C31.5184 18.875 31.7762 18.135 31.6429 17.262L30.4049 9.10746H25.6079V17.25C25.6079 18.1026 25.8814 18.8396 26.4284 19.461C26.9751 20.082 27.6676 20.3925 28.5059 20.3925ZM19.1449 20.3925C20.0426 20.3925 20.8082 20.0881 21.4419 19.4795C22.0759 18.8708 22.3929 18.1276 22.3929 17.25V9.10746H17.5959L16.3579 17.262C16.2326 18.0966 16.4539 18.8271 17.0219 19.4535C17.5902 20.0795 18.2979 20.3925 19.1449 20.3925ZM10.0534 20.3925C10.8111 20.3925 11.4757 20.1235 12.0474 19.5855C12.6191 19.0475 12.9509 18.3943 13.0429 17.626L14.3309 9.10746H9.53391L7.25791 16.324C6.93257 17.343 7.05791 18.2758 7.63391 19.1225C8.21024 19.9691 9.01674 20.3925 10.0534 20.3925ZM37.9004 20.3925C38.9351 20.3925 39.7489 19.977 40.3419 19.146C40.9346 18.3153 41.0682 17.3746 40.7429 16.324L38.4669 9.10746H33.6819L34.9579 17.626C35.0499 18.3943 35.3764 19.0475 35.9374 19.5855C36.4984 20.1235 37.1527 20.3925 37.9004 20.3925ZM9.02191 39H38.9289V23.761C38.9859 23.7863 38.8914 23.799 38.6454 23.799H37.8989C37.1066 23.799 36.3314 23.632 35.5734 23.298C34.8154 22.9636 34.0577 22.4418 33.3004 21.7325C32.7591 22.3751 32.0876 22.8803 31.2859 23.248C30.4839 23.6153 29.6072 23.799 28.6559 23.799C27.6682 23.799 26.8141 23.6633 26.0934 23.392C25.3727 23.1206 24.6751 22.6675 24.0004 22.0325C23.4867 22.6081 22.8479 23.0465 22.0839 23.3475C21.3202 23.6485 20.4607 23.799 19.5054 23.799C18.4847 23.799 17.5739 23.6235 16.7729 23.2725C15.9716 22.9215 15.2807 22.4081 14.7004 21.7325C13.8764 22.4165 13.0731 22.932 12.2904 23.279C11.5081 23.6256 10.7614 23.799 10.0504 23.799H9.41141C9.21074 23.799 9.08091 23.7863 9.02191 23.761V39ZM16.8504 36.4055H20.8504C21.1171 36.4055 21.3421 36.3105 21.5254 36.1205C21.7087 35.9305 21.8004 35.7088 21.8004 35.4555C21.8004 35.2021 21.7054 34.9805 21.5154 34.7905C21.3254 34.6005 21.1037 34.5055 20.8504 34.5055H17.8004V32.2055H20.8444C21.1151 32.2055 21.3421 32.1085 21.5254 31.9145C21.7087 31.7205 21.8004 31.5008 21.8004 31.2555V27.2555C21.8004 26.9888 21.7054 26.7638 21.5154 26.5805C21.3254 26.3971 21.1037 26.3055 20.8504 26.3055H16.8504C16.5837 26.3055 16.3587 26.3985 16.1754 26.5845C15.9921 26.7705 15.9004 26.9941 15.9004 27.2555C15.9004 27.5008 15.9954 27.7205 16.1854 27.9145C16.3754 28.1085 16.5971 28.2055 16.8504 28.2055H19.9004V30.3055H16.8564C16.5857 30.3055 16.3587 30.4005 16.1754 30.5905C15.9921 30.7805 15.9004 31.0021 15.9004 31.2555V35.4375C15.9004 35.7081 15.9954 35.9371 16.1854 36.1245C16.3754 36.3118 16.5971 36.4055 16.8504 36.4055ZM30.2004 32.2055V35.4555C30.2004 35.7008 30.2954 35.9205 30.4854 36.1145C30.6754 36.3085 30.8971 36.4055 31.1504 36.4055C31.4037 36.4055 31.6254 36.3085 31.8154 36.1145C32.0054 35.9205 32.1004 35.7008 32.1004 35.4555V27.265C32.1004 26.992 32.0054 26.7638 31.8154 26.5805C31.6254 26.3971 31.4037 26.3055 31.1504 26.3055C30.8971 26.3055 30.6754 26.4005 30.4854 26.5905C30.2954 26.7805 30.2004 27.0021 30.2004 27.2555V30.3055H28.1004V27.2615C28.1004 26.9908 28.0054 26.7638 27.8154 26.5805C27.6254 26.3971 27.4037 26.3055 27.1504 26.3055C26.8971 26.3055 26.6754 26.4005 26.4854 26.5905C26.2954 26.7805 26.2004 27.0021 26.2004 27.2555V31.2555C26.2004 31.5141 26.2954 31.7371 26.4854 31.9245C26.6754 32.1118 26.8971 32.2055 27.1504 32.2055H30.2004Z" fill="#3E597C"/>
</svg>
