<svg width="48" height="48" viewBox="0 0 48 48" fill="none" xmlns="http://www.w3.org/2000/svg">
<path d="M24.0001 38C27.9001 38 31.2084 36.6416 33.925 33.925C36.6417 31.2083 38 27.9 38 24C38 20.4333 36.829 17.325 34.487 14.675C32.145 12.025 29.2074 10.5206 25.674 10.162C25.2054 10.0953 24.8092 10.2141 24.4855 10.5185C24.1619 10.8228 24.0001 11.208 24.0001 11.674V24.0015L15.5751 32.825C15.2664 33.1696 15.1224 33.562 15.1431 34.002C15.1637 34.442 15.3447 34.7993 15.6861 35.074C16.8527 36.0246 18.1487 36.75 19.5741 37.25C20.9994 37.75 22.4747 38 24.0001 38ZM24.0016 44.299C21.2196 44.299 18.5939 43.7676 16.1245 42.705C13.6556 41.6423 11.4991 40.189 9.65505 38.345C7.81105 36.501 6.35772 34.345 5.29505 31.877C4.23238 29.409 3.70105 26.7838 3.70105 24.0015C3.70105 21.1861 4.23238 18.5438 5.29505 16.0745C6.35772 13.6055 7.81038 11.4571 9.65305 9.62946C11.4957 7.80146 13.6514 6.35446 16.1201 5.28846C18.5887 4.22213 21.2146 3.68896 23.9976 3.68896C26.8136 3.68896 29.4567 4.2218 31.927 5.28746C34.397 6.35313 36.5456 7.7993 38.3726 9.62596C40.1999 11.4526 41.6464 13.6006 42.712 16.07C43.778 18.5393 44.311 21.1826 44.311 24C44.311 26.7833 43.7779 29.4095 42.7115 31.8785C41.6455 34.3475 40.1985 36.5035 38.3705 38.3465C36.5429 40.1895 34.395 41.6423 31.927 42.705C29.459 43.7676 26.8172 44.299 24.0016 44.299ZM24.0001 40.8925C28.7014 40.8925 32.6922 39.2466 35.9725 35.955C39.2525 32.663 40.8925 28.678 40.8925 24C40.8925 19.2986 39.2525 15.3078 35.9725 12.0275C32.6922 8.74746 28.6994 7.10746 23.9941 7.10746C19.3221 7.10746 15.3396 8.74746 12.0465 12.0275C8.75388 15.3078 7.10755 19.3006 7.10755 24.006C7.10755 28.678 8.75338 32.6605 12.0451 35.9535C15.3371 39.2461 19.3221 40.8925 24.0001 40.8925Z" fill="#3E597C"/>
</svg>
