<svg width="40" height="40" viewBox="0 0 40 40" fill="none" xmlns="http://www.w3.org/2000/svg">
<path d="M20.0614 35.1095C19.6803 35.1095 19.3667 34.9882 19.1205 34.7454C18.8744 34.5026 18.7514 34.1907 18.7514 33.8095V31.5896C17.3917 31.3607 16.2379 30.8801 15.2901 30.1479C14.3424 29.4159 13.6012 28.4911 13.0668 27.3733C12.9146 27.0411 12.9179 26.6933 13.0768 26.33C13.2357 25.9669 13.4983 25.7093 13.8647 25.557C14.1903 25.4182 14.5244 25.4215 14.8672 25.567C15.2097 25.7126 15.481 25.9547 15.681 26.2933C16.1743 27.2114 16.8171 27.8965 17.6093 28.3487C18.4015 28.8009 19.3022 29.0271 20.3114 29.0271C21.6247 29.0271 22.6969 28.7054 23.528 28.062C24.3594 27.4187 24.7751 26.5369 24.7751 25.4166C24.7751 24.2277 24.3915 23.3016 23.6243 22.6383C22.8571 21.9747 21.4212 21.3023 19.3168 20.6212C17.3301 19.9957 15.8404 19.1434 14.8476 18.0645C13.8549 16.9859 13.3585 15.645 13.3585 14.0416C13.3585 12.5339 13.8432 11.2544 14.8126 10.2033C15.7821 9.15219 17.095 8.54066 18.7514 8.36871V6.19038C18.7514 5.80927 18.8744 5.49732 19.1205 5.25455C19.3667 5.01177 19.6803 4.89038 20.0614 4.89038C20.4425 4.89038 20.7543 5.01177 20.9968 5.25455C21.2396 5.49732 21.361 5.80927 21.361 6.19038V8.36871C22.3543 8.52094 23.2535 8.83316 24.0585 9.30538C24.8635 9.7776 25.5332 10.3952 26.0676 11.1583C26.2754 11.4627 26.3171 11.7897 26.1926 12.1391C26.0682 12.4883 25.8228 12.739 25.4564 12.8912C25.1375 13.0368 24.8014 13.0523 24.448 12.9379C24.0947 12.8234 23.7837 12.6034 23.5151 12.2779C23.1329 11.8045 22.6621 11.4532 22.1026 11.2237C21.5432 10.9943 20.8772 10.8795 20.1047 10.8795C18.8603 10.8795 17.8796 11.1562 17.1626 11.7095C16.446 12.2632 16.0876 13.02 16.0876 13.98C16.0876 14.9958 16.4843 15.8234 17.2776 16.4629C18.0712 17.1023 19.6064 17.7726 21.883 18.4737C23.785 19.0704 25.1974 19.924 26.1201 21.0345C27.0429 22.1448 27.5043 23.55 27.5043 25.25C27.5043 27.02 26.9854 28.448 25.9476 29.5341C24.9099 30.62 23.381 31.319 21.361 31.6312V33.8095C21.361 34.1907 21.238 34.5026 20.9922 34.7454C20.7461 34.9882 20.4358 35.1095 20.0614 35.1095Z" fill="white"/>
</svg>
