<svg width="40" height="40" viewBox="0 0 40 40" fill="none" xmlns="http://www.w3.org/2000/svg">
<path d="M19.9999 31.6667C23.2499 31.6667 26.0069 30.5348 28.2708 28.2709C30.5347 26.007 31.6666 23.25 31.6666 20C31.6666 17.0278 30.6908 14.4376 28.7391 12.2292C26.7874 10.0209 24.3394 8.76727 21.3949 8.46838C21.0044 8.41283 20.6742 8.51186 20.4045 8.76547C20.1348 9.01908 19.9999 9.34005 19.9999 9.72838V20.0013L12.9791 27.3542C12.7219 27.6414 12.6019 27.9684 12.6191 28.3351C12.6363 28.7017 12.7872 28.9995 13.0716 29.2284C14.0438 30.0206 15.1238 30.625 16.3116 31.0417C17.4994 31.4584 18.7288 31.6667 19.9999 31.6667ZM20.0012 36.9159C17.6829 36.9159 15.4948 36.4731 13.437 35.5875C11.3795 34.702 9.58244 33.4909 8.04577 31.9542C6.50911 30.4176 5.298 28.6209 4.41244 26.5642C3.52688 24.5076 3.08411 22.3199 3.08411 20.0013C3.08411 17.6552 3.52688 15.4532 4.41244 13.3955C5.298 11.338 6.50855 9.54769 8.04411 8.02463C9.57966 6.5013 11.3761 5.29547 13.4333 4.40713C15.4905 3.51852 17.6787 3.07422 19.9979 3.07422C22.3445 3.07422 24.5472 3.51825 26.6058 4.4063C28.6641 5.29436 30.4545 6.4995 31.977 8.02172C33.4998 9.54394 34.7052 11.3339 35.5933 13.3917C36.4816 15.4495 36.9258 17.6523 36.9258 20C36.9258 22.3195 36.4815 24.508 35.5929 26.5655C34.7045 28.623 33.4987 30.4196 31.9754 31.9555C30.4523 33.4913 28.6624 34.702 26.6058 35.5875C24.5491 36.4731 22.3476 36.9159 20.0012 36.9159ZM19.9999 34.0771C23.9177 34.0771 27.2434 32.7056 29.977 29.9625C32.7104 27.2192 34.077 23.8984 34.077 20C34.077 16.0823 32.7104 12.7566 29.977 10.023C27.2434 7.28963 23.916 5.92297 19.9949 5.92297C16.1016 5.92297 12.7829 7.28963 10.0387 10.023C7.2948 12.7566 5.92286 16.0839 5.92286 20.005C5.92286 23.8984 7.29438 27.2171 10.0374 29.9613C12.7808 32.7052 16.1016 34.0771 19.9999 34.0771Z" fill="white"/>
</svg>
