<svg width="40" height="40" viewBox="0 0 40 40" fill="none" xmlns="http://www.w3.org/2000/svg">
<path d="M16.8009 19.9266L14.0654 17.0673C13.8231 16.8013 13.5296 16.6684 13.1849 16.6684C12.8403 16.6684 12.5348 16.7856 12.2687 17.02C12.0027 17.2893 11.8698 17.5958 11.8698 17.9397C11.8698 18.2836 12.0027 18.5887 12.2687 18.8549L15.8823 22.43C16.1434 22.6952 16.4501 22.8278 16.8024 22.8278C17.1547 22.8278 17.4604 22.6952 17.7194 22.43L24.6096 15.5784C24.8501 15.3437 24.9704 15.0521 24.9704 14.7036C24.9704 14.3551 24.8374 14.0605 24.5715 13.8197C24.3307 13.6107 24.044 13.5125 23.7112 13.5252C23.3785 13.5379 23.1075 13.6518 22.8982 13.867L16.8009 19.9266ZM12.6367 33.4688L10.2925 29.4577L5.60481 28.5053C5.283 28.4484 5.01619 28.2774 4.80436 27.9925C4.59253 27.7072 4.51201 27.4045 4.56281 27.0842L5.09619 22.5512L2.11383 19.0709C1.88625 18.8349 1.77246 18.5469 1.77246 18.2068C1.77246 17.867 1.88625 17.5802 2.11383 17.3465L5.09619 13.9043L4.56281 9.37132C4.51201 9.05104 4.59253 8.74828 4.80436 8.46305C5.01619 8.17807 5.283 8.00409 5.60481 7.94109L10.2955 6.99587L12.6367 2.94864C12.8064 2.66696 13.0508 2.46707 13.3701 2.34896C13.6891 2.23086 14.0067 2.24432 14.3229 2.38935L18.4391 4.3141L22.5553 2.38935C22.8713 2.25016 23.1889 2.23175 23.5082 2.33411C23.8272 2.43621 24.0716 2.62836 24.2416 2.91054L26.6208 6.99587L31.2734 7.94109C31.5952 8.00409 31.8621 8.17807 32.0739 8.46305C32.2857 8.74828 32.3662 9.05104 32.3154 9.37132L31.7821 13.9043L34.7644 17.3465C34.992 17.5825 35.1058 17.8705 35.1058 18.2106C35.1058 18.5504 34.992 18.8372 34.7644 19.0709L31.7821 22.5512L32.3154 27.0842C32.3662 27.4045 32.2857 27.7072 32.0739 27.9925C31.8621 28.2774 31.5952 28.4484 31.2734 28.5053L26.6239 29.4577L24.2416 33.5069C24.0716 33.789 23.8272 33.9812 23.5082 34.0833C23.1889 34.1857 22.8713 34.1672 22.5553 34.0281L18.4391 32.1033L14.3229 34.0281C14.007 34.1672 13.6894 34.1793 13.3701 34.0642C13.0511 33.9494 12.8066 33.7509 12.6367 33.4688ZM14.3965 31.1002L18.438 29.3895L22.5934 31.1002L25.1281 27.3177L29.5491 26.1839L29.1011 21.6757L32.1505 18.2079L29.1011 14.664L29.5491 10.1573L25.1281 9.09968L22.5206 5.31724L18.4407 7.02673L14.2848 5.31724L11.7528 9.10196L7.3383 10.1535L7.7772 14.664L4.72778 18.2087L7.7772 21.6772L7.3383 26.2643L11.7513 27.3154L14.3965 31.1002Z" fill="white"/>
</svg>
